<svg xmlns="http://www.w3.org/2000/svg" xmlns:xlink="http://www.w3.org/1999/xlink" width="2000" zoomAndPan="magnify" viewBox="0 0 1500 1499.999933" height="2000" preserveAspectRatio="xMidYMid meet" version="1.0"><defs><g/></defs><g fill="#000000" fill-opacity="1"><g transform="translate(613.249973, 841.499908)"><g><path d="M 100.09375 -55.125 L 132.828125 -6.296875 C 127.222656 -2.566406 121.472656 -0.492188 115.578125 -0.078125 C 109.691406 0.328125 104.125 -0.78125 98.875 -3.40625 C 93.625 -6.03125 89.132812 -10.085938 85.40625 -15.578125 L 63.703125 -47.78125 L 47.25 -47.78125 L 47.25 -46.375 C 47.25 -37.851562 45.441406 -30.09375 41.828125 -23.09375 C 38.210938 -16.09375 33.398438 -10.492188 27.390625 -6.296875 C 21.378906 -2.097656 14.695312 0 7.34375 0 L 7.34375 -129.328125 C 7.34375 -134.578125 8.421875 -139.503906 10.578125 -144.109375 C 12.742188 -148.722656 15.660156 -152.78125 19.328125 -156.28125 C 23.003906 -159.78125 27.085938 -162.488281 31.578125 -164.40625 C 36.078125 -166.332031 40.601562 -167.296875 45.15625 -167.296875 L 69.125 -167.296875 C 78.226562 -167.296875 86.453125 -166.015625 93.796875 -163.453125 C 101.265625 -160.765625 107.625 -156.914062 112.875 -151.90625 C 118.125 -146.882812 122.148438 -140.695312 124.953125 -133.34375 C 127.753906 -126.113281 129.15625 -117.832031 129.15625 -108.5 L 129.15625 -108.15625 C 129.15625 -98.238281 127.578125 -89.546875 124.421875 -82.078125 C 121.390625 -74.492188 117.132812 -68.191406 111.65625 -63.171875 C 108.15625 -59.910156 104.300781 -57.226562 100.09375 -55.125 Z M 47.25 -128.625 L 47.25 -84.171875 L 66.328125 -84.171875 C 73.441406 -84.171875 79.039062 -86.15625 83.125 -90.125 C 87.09375 -93.976562 89.078125 -99.285156 89.078125 -106.046875 L 89.078125 -106.578125 C 89.078125 -113.804688 87.09375 -119.289062 83.125 -123.03125 C 79.039062 -126.757812 73.320312 -128.625 65.96875 -128.625 Z M 47.25 -128.625 "/></g></g></g><g fill="#2251c8" fill-opacity="1"><g transform="translate(751.847621, 841.499908)"><g><path d="M 11.71875 -21.703125 C 9.738281 -26.128906 8.75 -30.738281 8.75 -35.53125 L 8.75 -128.96875 C 8.75 -129.09375 8.773438 -129.179688 8.828125 -129.234375 C 8.890625 -129.296875 8.921875 -129.382812 8.921875 -129.5 L 8.75 -129.5 C 8.75 -139.769531 11.632812 -148.050781 17.40625 -154.34375 C 23.1875 -160.644531 30.6875 -164.03125 39.90625 -164.5 L 110.25 -164.5 L 110.25 -155.21875 C 110.25 -149.625 108.992188 -144.550781 106.484375 -140 C 103.972656 -135.445312 100.441406 -131.859375 95.890625 -129.234375 C 91.347656 -126.609375 85.984375 -125.296875 79.796875 -125.296875 L 79.796875 -129.5 L 55.828125 -129.5 C 53.378906 -129.269531 51.191406 -128.25 49.265625 -126.4375 C 47.335938 -124.625 46.140625 -122.492188 45.671875 -120.046875 C 45.554688 -119.460938 45.5 -118.9375 45.5 -118.46875 L 45.5 -107.09375 C 45.5 -106.632812 45.554688 -106.113281 45.671875 -105.53125 L 45.671875 -44.09375 C 46.140625 -41.414062 47.191406 -39.226562 48.828125 -37.53125 C 50.460938 -35.84375 52.675781 -35 55.46875 -35 L 92.921875 -35 L 92.921875 -59.84375 C 92.921875 -60.894531 92.976562 -62.003906 93.09375 -63.171875 C 85.75 -64.578125 79.890625 -67.875 75.515625 -73.0625 C 71.140625 -78.25 68.953125 -85.21875 68.953125 -93.96875 L 103.421875 -93.96875 C 108.671875 -93.96875 112.867188 -93.035156 116.015625 -91.171875 C 119.171875 -89.304688 121.476562 -86.914062 122.9375 -84 C 124.394531 -81.082031 125.328125 -77.929688 125.734375 -74.546875 C 126.140625 -71.160156 126.285156 -67.921875 126.171875 -64.828125 C 126.054688 -61.742188 126 -59.148438 126 -57.046875 L 125.828125 -31.84375 C 125.828125 -26.25 124.597656 -21.234375 122.140625 -16.796875 C 119.691406 -12.367188 116.394531 -8.695312 112.25 -5.78125 C 108.113281 -2.863281 103.597656 -0.9375 98.703125 0 L 44.09375 -0.171875 C 40.132812 -0.523438 36.375 -1.367188 32.8125 -2.703125 C 29.25 -4.046875 26.007812 -5.828125 23.09375 -8.046875 C 20.644531 -9.796875 18.457031 -11.835938 16.53125 -14.171875 C 14.613281 -16.503906 13.007812 -19.015625 11.71875 -21.703125 Z M 11.71875 -21.703125 "/></g></g></g></svg>