<svg xmlns="http://www.w3.org/2000/svg" xmlns:xlink="http://www.w3.org/1999/xlink" width="2000" zoomAndPan="magnify" viewBox="0 0 1500 1499.999933" height="2000" preserveAspectRatio="xMidYMid meet" version="1.0"><defs><g/></defs><g fill="#000000" fill-opacity="1"><g transform="translate(91.125026, 841.499908)"><g><path d="M 100.09375 -55.125 L 132.828125 -6.296875 C 127.222656 -2.566406 121.472656 -0.492188 115.578125 -0.078125 C 109.691406 0.328125 104.125 -0.78125 98.875 -3.40625 C 93.625 -6.03125 89.132812 -10.085938 85.40625 -15.578125 L 63.703125 -47.78125 L 47.25 -47.78125 L 47.25 -46.375 C 47.25 -37.851562 45.441406 -30.09375 41.828125 -23.09375 C 38.210938 -16.09375 33.398438 -10.492188 27.390625 -6.296875 C 21.378906 -2.097656 14.695312 0 7.34375 0 L 7.34375 -129.328125 C 7.34375 -134.578125 8.421875 -139.503906 10.578125 -144.109375 C 12.742188 -148.722656 15.660156 -152.78125 19.328125 -156.28125 C 23.003906 -159.78125 27.085938 -162.488281 31.578125 -164.40625 C 36.078125 -166.332031 40.601562 -167.296875 45.15625 -167.296875 L 69.125 -167.296875 C 78.226562 -167.296875 86.453125 -166.015625 93.796875 -163.453125 C 101.265625 -160.765625 107.625 -156.914062 112.875 -151.90625 C 118.125 -146.882812 122.148438 -140.695312 124.953125 -133.34375 C 127.753906 -126.113281 129.15625 -117.832031 129.15625 -108.5 L 129.15625 -108.15625 C 129.15625 -98.238281 127.578125 -89.546875 124.421875 -82.078125 C 121.390625 -74.492188 117.132812 -68.191406 111.65625 -63.171875 C 108.15625 -59.910156 104.300781 -57.226562 100.09375 -55.125 Z M 47.25 -128.625 L 47.25 -84.171875 L 66.328125 -84.171875 C 73.441406 -84.171875 79.039062 -86.15625 83.125 -90.125 C 87.09375 -93.976562 89.078125 -99.285156 89.078125 -106.046875 L 89.078125 -106.578125 C 89.078125 -113.804688 87.09375 -119.289062 83.125 -123.03125 C 79.039062 -126.757812 73.320312 -128.625 65.96875 -128.625 Z M 47.25 -128.625 "/></g></g></g><g fill="#000000" fill-opacity="1"><g transform="translate(229.721901, 841.499908)"><g><path d="M 44.96875 -65.453125 L 44.96875 -39.375 L 107.453125 -39.375 C 107.453125 -32.144531 105.757812 -25.582031 102.375 -19.6875 C 98.988281 -13.789062 94.4375 -9.125 88.71875 -5.6875 C 83.007812 -2.25 76.59375 -0.53125 69.46875 -0.53125 L 44.09375 -0.53125 C 37.21875 -0.53125 30.976562 -2.191406 25.375 -5.515625 C 19.769531 -8.835938 15.273438 -13.296875 11.890625 -18.890625 C 8.515625 -24.492188 6.828125 -30.738281 6.828125 -37.625 L 6.828125 -127.40625 C 6.828125 -134.40625 8.546875 -140.757812 11.984375 -146.46875 C 15.429688 -152.1875 20.007812 -156.765625 25.71875 -160.203125 C 31.4375 -163.648438 37.796875 -165.375 44.796875 -165.375 L 115.84375 -165.375 C 115.84375 -158.257812 114.351562 -151.753906 111.375 -145.859375 C 108.40625 -139.972656 104.265625 -135.28125 98.953125 -131.78125 C 93.648438 -128.28125 87.441406 -126.53125 80.328125 -126.53125 L 44.96875 -126.53125 L 44.96875 -101.5 L 91.34375 -101.5 L 82.953125 -65.453125 Z M 44.96875 -65.453125 "/></g></g></g><g fill="#000000" fill-opacity="1"><g transform="translate(338.919344, 841.499908)"><g><path d="M 106.21875 -81.375 C 109.375 -77.175781 111.828125 -72.535156 113.578125 -67.453125 C 115.328125 -62.378906 116.203125 -57.101562 116.203125 -51.625 L 116.203125 -50.21875 C 116.203125 -43.34375 114.914062 -36.898438 112.34375 -30.890625 C 109.78125 -24.878906 106.191406 -19.597656 101.578125 -15.046875 C 96.972656 -10.492188 91.664062 -6.9375 85.65625 -4.375 C 79.65625 -1.8125 73.210938 -0.53125 66.328125 -0.53125 L 10.15625 -0.53125 C 10.15625 -7.53125 11.726562 -13.859375 14.875 -19.515625 C 18.019531 -25.171875 22.273438 -29.628906 27.640625 -32.890625 C 33.015625 -36.160156 38.910156 -37.796875 45.328125 -37.796875 L 66.328125 -37.796875 C 69.710938 -37.796875 72.628906 -39.019531 75.078125 -41.46875 C 77.523438 -43.925781 78.75 -46.84375 78.75 -50.21875 L 78.75 -51.625 C 78.75 -54.894531 77.523438 -57.753906 75.078125 -60.203125 C 72.628906 -62.648438 69.710938 -63.875 66.328125 -63.875 L 54.59375 -63.875 C 46.425781 -63.875 38.875 -65.679688 31.9375 -69.296875 C 25 -72.910156 19.253906 -77.753906 14.703125 -83.828125 C 11.546875 -88.023438 9.09375 -92.660156 7.34375 -97.734375 C 5.59375 -102.804688 4.71875 -108.085938 4.71875 -113.578125 L 4.71875 -114.96875 C 4.71875 -121.851562 6.03125 -128.300781 8.65625 -134.3125 C 11.28125 -140.320312 14.867188 -145.597656 19.421875 -150.140625 C 23.972656 -154.691406 29.253906 -158.25 35.265625 -160.8125 C 41.273438 -163.382812 47.71875 -164.671875 54.59375 -164.671875 L 106.578125 -164.671875 C 106.578125 -157.671875 105 -151.34375 101.84375 -145.6875 C 98.695312 -140.03125 94.46875 -135.566406 89.15625 -132.296875 C 83.851562 -129.035156 77.9375 -127.40625 71.40625 -127.40625 L 54.59375 -127.40625 C 51.21875 -127.40625 48.300781 -126.175781 45.84375 -123.71875 C 43.394531 -121.269531 42.171875 -118.351562 42.171875 -114.96875 L 42.171875 -113.578125 C 42.171875 -110.304688 43.394531 -107.445312 45.84375 -105 C 48.300781 -102.550781 51.21875 -101.328125 54.59375 -101.328125 L 66.328125 -101.328125 C 74.492188 -101.328125 82.046875 -99.515625 88.984375 -95.890625 C 95.929688 -92.273438 101.675781 -87.4375 106.21875 -81.375 Z M 106.21875 -81.375 "/></g></g></g><g fill="#000000" fill-opacity="1"><g transform="translate(458.266654, 841.499908)"><g><path d="M 106.921875 -160.296875 C 112.523438 -162.984375 118.476562 -164.328125 124.78125 -164.328125 L 124.78125 -35.171875 C 124.78125 -28.410156 122.882812 -22.257812 119.09375 -16.71875 C 115.300781 -11.175781 110.3125 -6.882812 104.125 -3.84375 C 98.875 -0.925781 93.097656 0.757812 86.796875 1.21875 C 84.460938 1.457031 82.332031 1.660156 80.40625 1.828125 C 78.488281 2.003906 75.488281 2.09375 71.40625 2.09375 C 69.1875 2.09375 67.257812 2.09375 65.625 2.09375 C 62.351562 2.09375 59.144531 2.035156 56 1.921875 C 52.851562 1.804688 49.820312 1.570312 46.90625 1.21875 C 41.882812 0.875 37.15625 -0.113281 32.71875 -1.75 C 28.289062 -3.382812 24.441406 -5.832031 21.171875 -9.09375 C 20.472656 -9.800781 19.773438 -10.503906 19.078125 -11.203125 C 15.921875 -14.347656 13.410156 -17.988281 11.546875 -22.125 C 9.679688 -26.269531 8.75 -30.617188 8.75 -35.171875 L 8.75 -164.328125 C 15.394531 -164.328125 21.632812 -162.867188 27.46875 -159.953125 C 33.425781 -156.921875 38.238281 -152.660156 41.90625 -147.171875 C 45.582031 -141.691406 47.421875 -135.566406 47.421875 -128.796875 L 47.421875 -40.953125 C 47.421875 -38.148438 48.414062 -35.929688 50.40625 -34.296875 C 52.15625 -32.660156 54.3125 -31.84375 56.875 -31.84375 L 76.828125 -31.84375 C 76.828125 -31.84375 76.882812 -31.84375 77 -31.84375 C 79.445312 -31.96875 81.570312 -32.960938 83.375 -34.828125 C 85.1875 -36.691406 86.09375 -38.90625 86.09375 -41.46875 L 86.09375 -128.796875 C 86.09375 -135.679688 88.019531 -141.894531 91.875 -147.4375 C 95.726562 -152.976562 100.742188 -157.265625 106.921875 -160.296875 Z M 106.921875 -160.296875 "/></g></g></g><g fill="#000000" fill-opacity="1"><g transform="translate(588.288691, 841.499908)"><g><path d="M 47.421875 -164.84375 L 47.421875 -39.03125 L 114.09375 -39.03125 C 114.09375 -31.90625 112.488281 -25.425781 109.28125 -19.59375 C 106.070312 -13.757812 101.785156 -9.125 96.421875 -5.6875 C 91.054688 -2.25 85.164062 -0.53125 78.75 -0.53125 L 8.75 -0.53125 C 8.75 -0.53125 8.773438 -0.554688 8.828125 -0.609375 C 8.890625 -0.671875 8.921875 -0.757812 8.921875 -0.875 C 8.921875 -0.875 8.863281 -0.875 8.75 -0.875 L 8.75 -129.5 C 8.75 -136.03125 10.5 -141.976562 14 -147.34375 C 17.5 -152.71875 22.164062 -156.976562 28 -160.125 C 33.832031 -163.269531 40.304688 -164.84375 47.421875 -164.84375 Z M 47.421875 -164.84375 "/></g></g></g><g fill="#000000" fill-opacity="1"><g transform="translate(688.561219, 841.499908)"><g><path d="M 34.46875 -164.15625 L 128.796875 -164.15625 C 128.796875 -157.03125 127.21875 -150.785156 124.0625 -145.421875 C 120.914062 -140.054688 116.660156 -135.882812 111.296875 -132.90625 C 105.929688 -129.9375 100.039062 -128.453125 93.625 -128.453125 L 83.296875 -128.453125 L 83.296875 -35.703125 C 83.296875 -29.171875 81.546875 -23.25 78.046875 -17.9375 C 74.546875 -12.625 69.90625 -8.394531 64.125 -5.25 C 58.351562 -2.101562 51.910156 -0.53125 44.796875 -0.53125 L 44.796875 -128.453125 L -0.875 -128.453125 C -0.875 -135.566406 0.726562 -141.773438 3.9375 -147.078125 C 7.144531 -152.390625 11.398438 -156.5625 16.703125 -159.59375 C 22.015625 -162.632812 27.9375 -164.15625 34.46875 -164.15625 Z M 34.46875 -164.15625 "/></g></g></g><g fill="#000000" fill-opacity="1"><g transform="translate(816.833363, 841.499908)"><g/></g></g><g fill="#2251c8" fill-opacity="1"><g transform="translate(869.343708, 841.499908)"><g><path d="M 11.71875 -21.703125 C 9.738281 -26.128906 8.75 -30.738281 8.75 -35.53125 L 8.75 -128.96875 C 8.75 -129.09375 8.773438 -129.179688 8.828125 -129.234375 C 8.890625 -129.296875 8.921875 -129.382812 8.921875 -129.5 L 8.75 -129.5 C 8.75 -139.769531 11.632812 -148.050781 17.40625 -154.34375 C 23.1875 -160.644531 30.6875 -164.03125 39.90625 -164.5 L 110.25 -164.5 L 110.25 -155.21875 C 110.25 -149.625 108.992188 -144.550781 106.484375 -140 C 103.972656 -135.445312 100.441406 -131.859375 95.890625 -129.234375 C 91.347656 -126.609375 85.984375 -125.296875 79.796875 -125.296875 L 79.796875 -129.5 L 55.828125 -129.5 C 53.378906 -129.269531 51.191406 -128.25 49.265625 -126.4375 C 47.335938 -124.625 46.140625 -122.492188 45.671875 -120.046875 C 45.554688 -119.460938 45.5 -118.9375 45.5 -118.46875 L 45.5 -107.09375 C 45.5 -106.632812 45.554688 -106.113281 45.671875 -105.53125 L 45.671875 -44.09375 C 46.140625 -41.414062 47.191406 -39.226562 48.828125 -37.53125 C 50.460938 -35.84375 52.675781 -35 55.46875 -35 L 92.921875 -35 L 92.921875 -59.84375 C 92.921875 -60.894531 92.976562 -62.003906 93.09375 -63.171875 C 85.75 -64.578125 79.890625 -67.875 75.515625 -73.0625 C 71.140625 -78.25 68.953125 -85.21875 68.953125 -93.96875 L 103.421875 -93.96875 C 108.671875 -93.96875 112.867188 -93.035156 116.015625 -91.171875 C 119.171875 -89.304688 121.476562 -86.914062 122.9375 -84 C 124.394531 -81.082031 125.328125 -77.929688 125.734375 -74.546875 C 126.140625 -71.160156 126.285156 -67.921875 126.171875 -64.828125 C 126.054688 -61.742188 126 -59.148438 126 -57.046875 L 125.828125 -31.84375 C 125.828125 -26.25 124.597656 -21.234375 122.140625 -16.796875 C 119.691406 -12.367188 116.394531 -8.695312 112.25 -5.78125 C 108.113281 -2.863281 103.597656 -0.9375 98.703125 0 L 44.09375 -0.171875 C 40.132812 -0.523438 36.375 -1.367188 32.8125 -2.703125 C 29.25 -4.046875 26.007812 -5.828125 23.09375 -8.046875 C 20.644531 -9.796875 18.457031 -11.835938 16.53125 -14.171875 C 14.613281 -16.503906 13.007812 -19.015625 11.71875 -21.703125 Z M 11.71875 -21.703125 "/></g></g></g><g fill="#2251c8" fill-opacity="1"><g transform="translate(1004.615669, 841.499908)"><g><path d="M 106.921875 -160.296875 C 112.523438 -162.984375 118.476562 -164.328125 124.78125 -164.328125 L 124.78125 -35.171875 C 124.78125 -28.410156 122.882812 -22.257812 119.09375 -16.71875 C 115.300781 -11.175781 110.3125 -6.882812 104.125 -3.84375 C 98.875 -0.925781 93.097656 0.757812 86.796875 1.21875 C 84.460938 1.457031 82.332031 1.660156 80.40625 1.828125 C 78.488281 2.003906 75.488281 2.09375 71.40625 2.09375 C 69.1875 2.09375 67.257812 2.09375 65.625 2.09375 C 62.351562 2.09375 59.144531 2.035156 56 1.921875 C 52.851562 1.804688 49.820312 1.570312 46.90625 1.21875 C 41.882812 0.875 37.15625 -0.113281 32.71875 -1.75 C 28.289062 -3.382812 24.441406 -5.832031 21.171875 -9.09375 C 20.472656 -9.800781 19.773438 -10.503906 19.078125 -11.203125 C 15.921875 -14.347656 13.410156 -17.988281 11.546875 -22.125 C 9.679688 -26.269531 8.75 -30.617188 8.75 -35.171875 L 8.75 -164.328125 C 15.394531 -164.328125 21.632812 -162.867188 27.46875 -159.953125 C 33.425781 -156.921875 38.238281 -152.660156 41.90625 -147.171875 C 45.582031 -141.691406 47.421875 -135.566406 47.421875 -128.796875 L 47.421875 -40.953125 C 47.421875 -38.148438 48.414062 -35.929688 50.40625 -34.296875 C 52.15625 -32.660156 54.3125 -31.84375 56.875 -31.84375 L 76.828125 -31.84375 C 76.828125 -31.84375 76.882812 -31.84375 77 -31.84375 C 79.445312 -31.96875 81.570312 -32.960938 83.375 -34.828125 C 85.1875 -36.691406 86.09375 -38.90625 86.09375 -41.46875 L 86.09375 -128.796875 C 86.09375 -135.679688 88.019531 -141.894531 91.875 -147.4375 C 95.726562 -152.976562 100.742188 -157.265625 106.921875 -160.296875 Z M 106.921875 -160.296875 "/></g></g></g><g fill="#2251c8" fill-opacity="1"><g transform="translate(1138.312668, 841.499908)"><g><path d="M 99.921875 -55.46875 L 132.65625 -6.65625 C 127.164062 -3.03125 121.472656 -0.984375 115.578125 -0.515625 C 109.691406 -0.0546875 104.125 -1.140625 98.875 -3.765625 C 93.625 -6.390625 89.132812 -10.441406 85.40625 -15.921875 L 63.703125 -48.296875 L 47.25 -48.296875 L 47.25 -46.90625 C 47.25 -38.269531 45.441406 -30.453125 41.828125 -23.453125 C 38.210938 -16.453125 33.398438 -10.878906 27.390625 -6.734375 C 21.378906 -2.597656 14.640625 -0.53125 7.171875 -0.53125 L 7.171875 -129.84375 C 7.171875 -135.09375 8.28125 -139.992188 10.5 -144.546875 C 12.71875 -149.097656 15.660156 -153.125 19.328125 -156.625 C 23.003906 -160.125 27.085938 -162.863281 31.578125 -164.84375 C 36.078125 -166.832031 40.601562 -167.828125 45.15625 -167.828125 L 69.125 -167.828125 C 78.226562 -167.828125 86.453125 -166.484375 93.796875 -163.796875 C 101.265625 -161.234375 107.625 -157.441406 112.875 -152.421875 C 118.007812 -147.410156 122.035156 -141.226562 124.953125 -133.875 C 127.753906 -126.519531 129.15625 -118.238281 129.15625 -109.03125 L 129.15625 -108.5 C 129.15625 -98.582031 127.578125 -89.890625 124.421875 -82.421875 C 121.390625 -74.953125 117.132812 -68.65625 111.65625 -63.53125 C 108.15625 -60.375 104.242188 -57.6875 99.921875 -55.46875 Z M 47.25 -84.53125 L 66.15625 -84.53125 C 73.382812 -84.53125 78.984375 -86.507812 82.953125 -90.46875 C 87.035156 -94.4375 89.078125 -99.75 89.078125 -106.40625 L 89.078125 -106.921875 C 89.078125 -114.160156 87.035156 -119.644531 82.953125 -123.375 C 78.984375 -127.101562 73.320312 -128.96875 65.96875 -128.96875 L 47.25 -128.96875 Z M 47.25 -84.53125 "/></g></g></g><g fill="#2251c8" fill-opacity="1"><g transform="translate(1275.159546, 841.499908)"><g><path d="M 106.921875 -160.296875 C 112.523438 -162.984375 118.476562 -164.328125 124.78125 -164.328125 L 124.78125 -35.171875 C 124.78125 -28.410156 122.882812 -22.257812 119.09375 -16.71875 C 115.300781 -11.175781 110.3125 -6.882812 104.125 -3.84375 C 98.875 -0.925781 93.097656 0.757812 86.796875 1.21875 C 84.460938 1.457031 82.332031 1.660156 80.40625 1.828125 C 78.488281 2.003906 75.488281 2.09375 71.40625 2.09375 C 69.1875 2.09375 67.257812 2.09375 65.625 2.09375 C 62.351562 2.09375 59.144531 2.035156 56 1.921875 C 52.851562 1.804688 49.820312 1.570312 46.90625 1.21875 C 41.882812 0.875 37.15625 -0.113281 32.71875 -1.75 C 28.289062 -3.382812 24.441406 -5.832031 21.171875 -9.09375 C 20.472656 -9.800781 19.773438 -10.503906 19.078125 -11.203125 C 15.921875 -14.347656 13.410156 -17.988281 11.546875 -22.125 C 9.679688 -26.269531 8.75 -30.617188 8.75 -35.171875 L 8.75 -164.328125 C 15.394531 -164.328125 21.632812 -162.867188 27.46875 -159.953125 C 33.425781 -156.921875 38.238281 -152.660156 41.90625 -147.171875 C 45.582031 -141.691406 47.421875 -135.566406 47.421875 -128.796875 L 47.421875 -40.953125 C 47.421875 -38.148438 48.414062 -35.929688 50.40625 -34.296875 C 52.15625 -32.660156 54.3125 -31.84375 56.875 -31.84375 L 76.828125 -31.84375 C 76.828125 -31.84375 76.882812 -31.84375 77 -31.84375 C 79.445312 -31.96875 81.570312 -32.960938 83.375 -34.828125 C 85.1875 -36.691406 86.09375 -38.90625 86.09375 -41.46875 L 86.09375 -128.796875 C 86.09375 -135.679688 88.019531 -141.894531 91.875 -147.4375 C 95.726562 -152.976562 100.742188 -157.265625 106.921875 -160.296875 Z M 106.921875 -160.296875 "/></g></g></g></svg>